HIERARCHY
ROOT Hips
{
	OFFSET 0.000000 0.000000 0.000000
	CHANNELS 6 Xposition Yposition Zposition Xrotation Yrotation Zrotation
	JOINT LeftUpLeg_virtual
	{
		OFFSET 0.000000 0.000000 0.000000
		CHANNELS 3 Xrotation Yrotation Zrotation
		JOINT LeftUpLeg
		{
			OFFSET 11.394100 -6.187798 -0.413800
			CHANNELS 3 Xrotation Yrotation Zrotation
			JOINT LeftLeg
			{
				OFFSET 0.430247 -32.302673 3.732800
				CHANNELS 3 Xrotation Yrotation Zrotation
				JOINT LeftFoot
				{
					OFFSET -0.430247 -48.264931 -6.423300
					CHANNELS 3 Xrotation Yrotation Zrotation
					JOINT LeftToeBase
					{
						OFFSET 4.230900 -16.068199 23.438400
						CHANNELS 3 Xrotation Yrotation Zrotation
						JOINT LeftToe_End
						{
							OFFSET 4.510700 0.695400 19.974600
							CHANNELS 3 Xrotation Yrotation Zrotation
							End Site
							{
								OFFSET 0 0 0
							}
						}
					}
				}
			}
		}
	}
	JOINT RightUpLeg_virtual
	{
		OFFSET 0.000000 0.000000 0.000000
		CHANNELS 3 Xrotation Yrotation Zrotation
		JOINT RightUpLeg
		{
			OFFSET -11.333700 -6.187798 -0.413800
			CHANNELS 3 Xrotation Yrotation Zrotation
			JOINT RightLeg
			{
				OFFSET -0.430392 -32.302628 3.733000
				CHANNELS 3 Xrotation Yrotation Zrotation
				JOINT RightFoot
				{
					OFFSET 0.430392 -48.264973 -6.423500
					CHANNELS 3 Xrotation Yrotation Zrotation
					JOINT RightToeBase
					{
						OFFSET -4.230900 -16.068199 23.438400
						CHANNELS 3 Xrotation Yrotation Zrotation
						JOINT RightToe_End
						{
							OFFSET -4.510700 0.695400 19.974600
							CHANNELS 3 Xrotation Yrotation Zrotation
							End Site
							{
								OFFSET 0 0 0
							}
						}
					}
				}
			}
		}
	}
	JOINT Spine_virtual
	{
		OFFSET 0.000000 0.000000 0.000000
		CHANNELS 3 Xrotation Yrotation Zrotation
		JOINT Spine
		{
			OFFSET -0.002400 12.777504 0.315300
			CHANNELS 3 Xrotation Yrotation Zrotation
			JOINT Spine1
			{
				OFFSET -0.002067 5.816869 0.032633
				CHANNELS 3 Xrotation Yrotation Zrotation
				JOINT Spine1_split
				{
					OFFSET -0.002067 5.816869 0.032633
					CHANNELS 3 Xrotation Yrotation Zrotation
					JOINT Spine2
					{
						OFFSET -0.002067 5.816869 0.032633
						CHANNELS 3 Xrotation Yrotation Zrotation
						JOINT Neck_virtual
						{
							OFFSET 0.000000 0.000000 0.000000
							CHANNELS 3 Xrotation Yrotation Zrotation
							JOINT Neck
							{
								OFFSET -0.003700 21.199493 -0.826900
								CHANNELS 3 Xrotation Yrotation Zrotation
								JOINT Head
								{
									OFFSET 0.000000 20.442200 4.834800
									CHANNELS 3 Xrotation Yrotation Zrotation
									JOINT HeadTop_End
									{
										OFFSET 0.000000 34.668396 4.968400
										CHANNELS 3 Xrotation Yrotation Zrotation
										End Site
										{
											OFFSET 0 0 0
										}
									}
								}
							}
						}
						JOINT LeftShoulder_virtual
						{
							OFFSET 0.000000 0.000000 0.000000
							CHANNELS 3 Xrotation Yrotation Zrotation
							JOINT LeftShoulder
							{
								OFFSET 3.288150 8.794197 -1.372250
								CHANNELS 3 Xrotation Yrotation Zrotation
								JOINT LeftShoulder_split
								{
									OFFSET 3.288150 8.794197 -1.372250
									CHANNELS 3 Xrotation Yrotation Zrotation
									JOINT LeftArm
									{
										OFFSET 11.953299 -2.279007 -0.146200
										CHANNELS 3 Xrotation Yrotation Zrotation
										JOINT LeftForeArm
										{
											OFFSET 18.448900 0.000000 0.000000
											CHANNELS 3 Xrotation Yrotation Zrotation
											JOINT LeftHand
											{
												OFFSET 29.527798 0.000000 0.000000
												CHANNELS 3 Xrotation Yrotation Zrotation
												End Site
												{
													OFFSET 0 0 0
												}
											}
										}
									}
								}
							}
						}
						JOINT RightShoulder_virtual
						{
							OFFSET 0.000000 0.000000 0.000000
							CHANNELS 3 Xrotation Yrotation Zrotation
							JOINT RightShoulder
							{
								OFFSET -3.249400 8.794197 -1.372250
								CHANNELS 3 Xrotation Yrotation Zrotation
								JOINT RightShoulder_split
								{
									OFFSET -3.249400 8.794197 -1.372250
									CHANNELS 3 Xrotation Yrotation Zrotation
									JOINT RightArm
									{
										OFFSET -11.953299 -2.279007 -0.146200
										CHANNELS 3 Xrotation Yrotation Zrotation
										JOINT RightForeArm
										{
											OFFSET -18.448900 0.000000 0.000000
											CHANNELS 3 Xrotation Yrotation Zrotation
											JOINT RightHand
											{
												OFFSET -29.527802 0.000000 0.000000
												CHANNELS 3 Xrotation Yrotation Zrotation
												End Site
												{
													OFFSET 0 0 0
												}
											}
										}
									}
								}
							}
						}
					}
				}
			}
		}
	}
}
MOTION
Frames: 4
Frame Time: 0.03333333
5.035296 86.157356 -9.890270 0.000000 0.000000 0.000000 44.675021 5.810587 -3.961084 -92.888845 5.824057 18.717797 41.712290 12.081601 -3.143375 6.494233 13.957942 -5.338142 0.791102 1.442992 -1.521619 0.000000 0.000000 0.000000 45.101734 5.073970 -1.899075 -56.536201 12.482001 -5.457018 68.989193 3.296384 -6.742934 21.080650 1.771856 15.046693 -48.023948 -3.721821 11.718176 0.000000 0.000000 0.000000 48.850643 -2.134615 1.330099 12.196733 0.282232 -2.872981 12.114746 1.780755 -0.738574 -0.076011 1.912678 1.228618 0.000000 0.000000 0.000000 27.061426 1.312076 -0.822264 -22.502658 -4.909642 5.994519 -18.661957 4.760415 -6.892764 0.000000 0.000000 0.000000 25.994513 2.318436 -0.298789 4.017354 -3.079289 6.539913 5.829890 -17.082006 -5.170203 -34.109931 -46.266332 -32.741529 2.546207 -47.480361 3.259269 0.000000 0.000000 0.000000 25.085325 1.033087 -0.075122 -2.228936 33.509475 10.991943 9.935764 10.893166 4.882294 -51.567512 23.147521 26.228007 2.386441 38.820412 -4.361589 0.000000 0.000000 0.000000 
4.863717 87.366516 -9.223099 0.000000 0.000000 0.000000 40.603340 4.006145 -2.894904 -87.643860 6.132596 17.781414 38.380831 12.570200 -3.185399 7.593377 14.585691 -6.307348 0.883800 1.519230 -1.522399 0.000000 0.000000 0.000000 40.892206 2.892832 -0.809040 -59.832826 12.333089 -5.032170 70.103504 2.776348 -6.214512 16.300072 0.206314 12.175982 -37.440437 -2.077233 11.261308 0.000000 0.000000 0.000000 44.524600 -4.481642 2.033157 12.752884 0.212786 -2.919138 12.149031 1.744828 -0.528084 -0.144435 1.914114 1.164691 0.000000 0.000000 0.000000 26.973921 1.274056 -0.626084 -21.984564 -4.635923 5.902749 -17.997286 5.595895 -6.273175 0.000000 0.000000 0.000000 25.824291 2.233557 -0.116948 4.040874 -2.357493 5.237839 4.540136 -17.064410 -5.030781 -32.327473 -45.090006 -33.893028 2.264794 -47.029944 2.706746 0.000000 0.000000 0.000000 24.935006 1.018891 0.055105 -2.337752 32.489984 11.568434 10.725004 10.888945 5.628904 -49.904084 22.969837 28.924512 2.462116 37.252033 -4.903011 0.000000 0.000000 0.000000 
4.745183 88.474747 -8.499763 0.000000 0.000000 0.000000 36.524320 1.856030 -1.978607 -82.413944 6.467173 17.175153 35.359657 12.989157 -3.238280 8.427425 14.861877 -7.304857 0.747032 1.590063 -1.408693 0.000000 0.000000 0.000000 36.761205 0.203733 0.199531 -62.249736 12.180477 -5.044342 69.163138 2.307214 -5.689684 12.285740 -0.929338 9.878976 -27.504270 -0.679854 10.784928 0.000000 0.000000 0.000000 40.323531 -6.811978 2.527094 13.122048 0.193414 -2.932674 12.120609 1.768264 -0.331207 -0.223750 1.848639 1.155393 0.000000 0.000000 0.000000 26.836042 1.297342 -0.476566 -21.428385 -4.328359 5.711904 -17.311342 6.371895 -5.783160 0.000000 0.000000 0.000000 25.597145 2.218921 0.066187 4.054350 -1.672588 3.927258 3.185179 -16.760166 -4.876642 -30.730179 -43.735115 -35.347824 1.873693 -45.809877 2.082346 0.000000 0.000000 0.000000 24.719170 1.073204 0.172076 -2.332188 31.383896 11.931826 11.420756 10.516529 6.178811 -48.231668 22.570208 31.263893 2.385012 35.500468 -5.293883 0.000000 0.000000 0.000000 
4.703168 89.498390 -7.747917 0.000000 0.000000 0.000000 32.673286 -0.281231 -1.401883 -77.303992 7.024376 16.991706 32.595319 13.448300 -3.297854 8.959764 14.903734 -8.033896 0.668779 1.652351 -1.270577 0.000000 0.000000 0.000000 32.876248 -2.460472 0.822888 -63.350565 11.979664 -5.389242 66.347194 2.212602 -5.359677 9.273778 -1.222472 8.744452 -19.749758 0.402187 9.891283 0.000000 0.000000 0.000000 36.410752 -8.866076 2.716813 13.314261 0.213855 -2.921999 12.034399 1.848832 -0.127611 -0.233231 1.789727 1.160342 0.000000 0.000000 0.000000 26.628205 1.372001 -0.342082 -20.857265 -4.018412 5.461999 -16.455474 7.103631 -5.424209 0.000000 0.000000 0.000000 25.299849 2.263848 0.271260 4.061202 -1.066437 2.692259 2.055641 -16.463474 -4.668201 -29.318532 -42.335428 -37.063779 1.538499 -44.140460 1.535587 0.000000 0.000000 0.000000 24.435753 1.186713 0.295800 -2.220116 30.231015 12.085630 12.020406 9.802750 6.699914 -46.446369 21.876399 33.080000 2.187274 33.904366 -5.554357 0.000000 0.000000 0.000000 
